<svg id="Layer_1" data-name="Layer 1" xmlns="http://www.w3.org/2000/svg" viewBox="0 0 512 512"><title>capabilities</title><path d="M248.311,166.673a6,6,0,0,0-8.485-.1L188.69,216.5l-26.518-25.89a6,6,0,0,0-8.383,8.586l30.71,29.982a6,6,0,0,0,8.383,0l55.327-54.017A6,6,0,0,0,248.311,166.673Z"/><path d="M474.683,303.994c-.015-5.6-.07-22.646-.2-24.737A128.887,128.887,0,0,0,346.812,157.426a149.578,149.578,0,0,0-16.747-38.141L352.5,92.2a6,6,0,0,0-.352-8.042L315.011,46.541a6,6,0,0,0-8.1-.406L279.783,68.6A152.688,152.688,0,0,0,237.267,50.65l-3.4-35.226A6,6,0,0,0,227.9,10H174.575a6,6,0,0,0-5.972,5.424l-3.4,35.224a149.27,149.27,0,0,0-42.559,17.92L95.56,46.135a6,6,0,0,0-8.07.378L49.878,84.125A6,6,0,0,0,49.5,92.2l22.468,27.131a152.674,152.674,0,0,0-17.952,42.517l-35.227,3.4a6,6,0,0,0-5.424,5.972v53.324a6,6,0,0,0,5.424,5.972L54.012,233.9a149.192,149.192,0,0,0,17.921,42.559L49.5,303.55a6,6,0,0,0,.379,8.069L87.49,349.231a6,6,0,0,0,8.07.379l27.13-22.467A152.716,152.716,0,0,0,165.207,345.1l3.4,35.226a6,6,0,0,0,5.972,5.424H227.9a6,6,0,0,0,5.973-5.424l3.4-35.223q3.454-.858,6.884-1.889c4.128,11.178,9.2,26.26,9.9,33.818,3.643,39.141,1.049,98.013.217,114.309A10.153,10.153,0,0,0,264.411,502h105.3a6,6,0,0,0,6-6V455.907a11.62,11.62,0,0,1,11.109-8.161h.048c21.325.089,34.36.165,35.761.209a33.029,33.029,0,0,0,24.329-9.53,34.1,34.1,0,0,0,9.976-24.391V380.3h29.92a11.855,11.855,0,0,0,7.99-2.94,11.474,11.474,0,0,0,3.038-12.612ZM230.44,334.364a6,6,0,0,0-4.7,5.288l-3.286,34.093H180.024l-3.286-34.093a6,6,0,0,0-4.705-5.288,140.807,140.807,0,0,1-46.577-19.65,6,6,0,0,0-7.08.421L92.112,336.884,62.226,307l21.749-26.264a6,6,0,0,0,.371-7.155,136.684,136.684,0,0,1-19.6-46.5,6,6,0,0,0-5.288-4.7l-34.093-3.287V176.66l34.093-3.286a6,6,0,0,0,5.288-4.7A140.8,140.8,0,0,1,84.4,122.092a6,6,0,0,0-.421-7.08L62.226,88.749,92.112,58.861,118.376,80.61a6,6,0,0,0,7.155.371,136.727,136.727,0,0,1,46.5-19.6,6,6,0,0,0,4.705-5.288L180.024,22h42.425l3.286,34.093a6,6,0,0,0,4.7,5.288,140.824,140.824,0,0,1,46.578,19.65,6,6,0,0,0,7.08-.421l26.236-21.727L339.8,88.722l-21.772,26.29a6,6,0,0,0-.371,7.155,136.462,136.462,0,0,1,16.8,35.758,117.8,117.8,0,0,0-28.682,6.268,109.813,109.813,0,1,0-76.227,139.792,121.248,121.248,0,0,0,10.2,28C236.661,332.888,233.55,333.692,230.44,334.364Zm-2.985-42.239a97.824,97.824,0,1,1,67.192-123.344,118.528,118.528,0,0,0-51.637,47.7A120.336,120.336,0,0,0,227.455,292.125ZM450.929,368.3a6,6,0,0,0-6,6v40.347A21.322,21.322,0,0,1,423,435.961c-1.57-.049-13.711-.121-36.086-.215h-.1a23.6,23.6,0,0,0-22.926,17.877,5.979,5.979,0,0,0-.182,1.464V490H266.359c.949-18.872,3.273-75.085-.357-114.085-1.345-14.439-14.3-46.554-14.847-47.914a5.55,5.55,0,0,0-.243-.525,108.129,108.129,0,0,1,2.471-104.959,105.835,105.835,0,0,1,88.025-53.025q1.507-.054,3.024-.071A116.9,116.9,0,0,1,462.505,279.945c.093,1.548.16,16.264.181,25.176a6.006,6.006,0,0,0,.394,2.126L486.389,368.3Z"/></svg>